<svg xmlns="http://www.w3.org/2000/svg" width="1240" height="720" viewBox="0 0 1240 720">
<rect width="1240" height="720" fill="#ffffff"/>
<text x="52" y="52" font-size="28" font-weight="800" fill="#18212f" text-anchor="start" font-family="Inter, Arial, sans-serif">Retrieval performance on POJ-104</text><text x="52" y="82" font-size="14" font-weight="500" fill="#657184" text-anchor="start" font-family="Inter, Arial, sans-serif">MAP@R is the primary retrieval metric; all bars use the same 0-1 scale.</text>
<line x1="120" y1="615" x2="1190" y2="615" stroke="#edf2f5" stroke-width="1"/>
<text x="106" y="620" font-size="12" font-weight="500" fill="#657184" text-anchor="end" font-family="Inter, Arial, sans-serif">0.00</text>
<line x1="120" y1="497.5" x2="1190" y2="497.5" stroke="#edf2f5" stroke-width="1"/>
<text x="106" y="502.5" font-size="12" font-weight="500" fill="#657184" text-anchor="end" font-family="Inter, Arial, sans-serif">0.25</text>
<line x1="120" y1="380.0" x2="1190" y2="380.0" stroke="#edf2f5" stroke-width="1"/>
<text x="106" y="385.0" font-size="12" font-weight="500" fill="#657184" text-anchor="end" font-family="Inter, Arial, sans-serif">0.50</text>
<line x1="120" y1="262.5" x2="1190" y2="262.5" stroke="#edf2f5" stroke-width="1"/>
<text x="106" y="267.5" font-size="12" font-weight="500" fill="#657184" text-anchor="end" font-family="Inter, Arial, sans-serif">0.75</text>
<line x1="120" y1="145.0" x2="1190" y2="145.0" stroke="#edf2f5" stroke-width="1"/>
<text x="106" y="150.0" font-size="12" font-weight="500" fill="#657184" text-anchor="end" font-family="Inter, Arial, sans-serif">1.00</text>
<text x="227.0" y="656" font-size="15" font-weight="800" fill="#18212f" text-anchor="middle" font-family="Inter, Arial, sans-serif">MAP@R</text>
<rect x="147.0" y="513.06" width="34" height="101.94" rx="5" fill="#a66f12"/>
<text x="164.0" y="505.06" font-size="11" font-weight="700" fill="#657184" text-anchor="middle" font-family="Inter, Arial, sans-serif">0.217</text>
<rect x="189.0" y="187.38" width="34" height="427.62" rx="5" fill="#285fae"/>
<text x="206.0" y="179.38" font-size="11" font-weight="700" fill="#657184" text-anchor="middle" font-family="Inter, Arial, sans-serif">0.910</text>
<rect x="231.0" y="186.52" width="34" height="428.48" rx="5" fill="#147765"/>
<text x="248.0" y="178.52" font-size="11" font-weight="700" fill="#657184" text-anchor="middle" font-family="Inter, Arial, sans-serif">0.912</text>
<rect x="273.0" y="180.04" width="34" height="434.96" rx="5" fill="#6554b5"/>
<text x="290.0" y="172.04" font-size="11" font-weight="700" fill="#657184" text-anchor="middle" font-family="Inter, Arial, sans-serif">0.925</text>
<text x="441.0" y="656" font-size="15" font-weight="800" fill="#18212f" text-anchor="middle" font-family="Inter, Arial, sans-serif">R@1</text>
<rect x="361.0" y="235.4" width="34" height="379.6" rx="5" fill="#a66f12"/>
<rect x="403.0" y="146.14" width="34" height="468.86" rx="5" fill="#285fae"/>
<rect x="445.0" y="145.86" width="34" height="469.14" rx="5" fill="#147765"/>
<rect x="487.0" y="145.9" width="34" height="469.1" rx="5" fill="#6554b5"/>
<text x="655.0" y="656" font-size="15" font-weight="800" fill="#18212f" text-anchor="middle" font-family="Inter, Arial, sans-serif">R@5</text>
<rect x="575.0" y="185.42" width="34" height="429.58" rx="5" fill="#a66f12"/>
<rect x="617.0" y="145.55" width="34" height="469.45" rx="5" fill="#285fae"/>
<rect x="659.0" y="145.51" width="34" height="469.49" rx="5" fill="#147765"/>
<rect x="701.0" y="145.43" width="34" height="469.57" rx="5" fill="#6554b5"/>
<text x="869.0" y="656" font-size="15" font-weight="800" fill="#18212f" text-anchor="middle" font-family="Inter, Arial, sans-serif">R@10</text>
<rect x="789.0" y="169.13" width="34" height="445.87" rx="5" fill="#a66f12"/>
<rect x="831.0" y="145.35" width="34" height="469.65" rx="5" fill="#285fae"/>
<rect x="873.0" y="145.35" width="34" height="469.65" rx="5" fill="#147765"/>
<rect x="915.0" y="145.2" width="34" height="469.8" rx="5" fill="#6554b5"/>
<text x="1083.0" y="656" font-size="15" font-weight="800" fill="#18212f" text-anchor="middle" font-family="Inter, Arial, sans-serif">MRR</text>
<rect x="1003.0" y="212.65" width="34" height="402.35" rx="5" fill="#a66f12"/>
<rect x="1045.0" y="145.84" width="34" height="469.16" rx="5" fill="#285fae"/>
<rect x="1087.0" y="145.68" width="34" height="469.32" rx="5" fill="#147765"/>
<rect x="1129.0" y="145.67" width="34" height="469.33" rx="5" fill="#6554b5"/>
<rect x="670" y="105" width="14" height="14" rx="3" fill="#a66f12"/>
<text x="692" y="117" font-size="13" font-weight="700" fill="#18212f" text-anchor="start" font-family="Inter, Arial, sans-serif">TF-IDF</text>
<rect x="800" y="105" width="14" height="14" rx="3" fill="#285fae"/>
<text x="822" y="117" font-size="13" font-weight="700" fill="#18212f" text-anchor="start" font-family="Inter, Arial, sans-serif">UniXcoder</text>
<rect x="930" y="105" width="14" height="14" rx="3" fill="#147765"/>
<text x="952" y="117" font-size="13" font-weight="700" fill="#18212f" text-anchor="start" font-family="Inter, Arial, sans-serif">Label-aware</text>
<rect x="1060" y="105" width="14" height="14" rx="3" fill="#6554b5"/>
<text x="1082" y="117" font-size="13" font-weight="700" fill="#18212f" text-anchor="start" font-family="Inter, Arial, sans-serif">SupCon CE</text>
<line x1="120" y1="615" x2="1190" y2="615" stroke="#dce4ec" stroke-width="1.4"/>
</svg>
