<svg xmlns="http://www.w3.org/2000/svg" width="1160" height="620" viewBox="0 0 1160 620">
<rect width="1160" height="620" fill="#ffffff"/>
<text x="52" y="52" font-size="28" font-weight="800" fill="#18212f" text-anchor="start" font-family="Inter, Arial, sans-serif">Metric matrix</text><text x="52" y="82" font-size="14" font-weight="500" fill="#657184" text-anchor="start" font-family="Inter, Arial, sans-serif">Darker cells indicate stronger relative performance within each metric column.</text>
<rect x="78" y="145" width="980" height="360" rx="10" fill="#ffffff" stroke="#dce4ec"/>
<rect x="78" y="145" width="980" height="72" rx="10" fill="#f8fafb"/>
<text x="98" y="190" font-size="14" font-weight="800" fill="#18212f" text-anchor="start" font-family="Inter, Arial, sans-serif">Method</text>
<text x="374.0" y="190" font-size="14" font-weight="800" fill="#18212f" text-anchor="middle" font-family="Inter, Arial, sans-serif">MAP@R</text>
<text x="526.0" y="190" font-size="14" font-weight="800" fill="#18212f" text-anchor="middle" font-family="Inter, Arial, sans-serif">R@1</text>
<text x="678.0" y="190" font-size="14" font-weight="800" fill="#18212f" text-anchor="middle" font-family="Inter, Arial, sans-serif">R@5</text>
<text x="830.0" y="190" font-size="14" font-weight="800" fill="#18212f" text-anchor="middle" font-family="Inter, Arial, sans-serif">R@10</text>
<text x="982.0" y="190" font-size="14" font-weight="800" fill="#18212f" text-anchor="middle" font-family="Inter, Arial, sans-serif">MRR</text>
<line x1="78" y1="217" x2="1058" y2="217" stroke="#dce4ec" stroke-width="1"/>
<text x="98" y="262" font-size="14" font-weight="800" fill="#18212f" text-anchor="start" font-family="Inter, Arial, sans-serif">TF-IDF</text>
<rect x="298" y="217" width="152" height="72" rx="0" fill="#147765" opacity="0.1"/>
<text x="374.0" y="262" font-size="14" font-weight="800" fill="#18212f" text-anchor="middle" font-family="Inter, Arial, sans-serif">0.2169</text>
<rect x="450" y="217" width="152" height="72" rx="0" fill="#147765" opacity="0.1"/>
<text x="526.0" y="262" font-size="14" font-weight="800" fill="#18212f" text-anchor="middle" font-family="Inter, Arial, sans-serif">0.8077</text>
<rect x="602" y="217" width="152" height="72" rx="0" fill="#147765" opacity="0.1"/>
<text x="678.0" y="262" font-size="14" font-weight="800" fill="#18212f" text-anchor="middle" font-family="Inter, Arial, sans-serif">0.9140</text>
<rect x="754" y="217" width="152" height="72" rx="0" fill="#147765" opacity="0.1"/>
<text x="830.0" y="262" font-size="14" font-weight="800" fill="#18212f" text-anchor="middle" font-family="Inter, Arial, sans-serif">0.9487</text>
<rect x="906" y="217" width="152" height="72" rx="0" fill="#147765" opacity="0.1"/>
<text x="982.0" y="262" font-size="14" font-weight="800" fill="#18212f" text-anchor="middle" font-family="Inter, Arial, sans-serif">0.8561</text>
<line x1="78" y1="289" x2="1058" y2="289" stroke="#dce4ec" stroke-width="1"/>
<text x="98" y="334" font-size="14" font-weight="800" fill="#18212f" text-anchor="start" font-family="Inter, Arial, sans-serif">UniXcoder</text>
<rect x="298" y="289" width="152" height="72" rx="0" fill="#147765" opacity="0.45206598647589236"/>
<text x="374.0" y="334" font-size="14" font-weight="800" fill="#18212f" text-anchor="middle" font-family="Inter, Arial, sans-serif">0.9098</text>
<rect x="450" y="289" width="152" height="72" rx="0" fill="#147765" opacity="0.4588976377952757"/>
<text x="526.0" y="334" font-size="14" font-weight="800" fill="#18212f" text-anchor="middle" font-family="Inter, Arial, sans-serif">0.9976</text>
<rect x="602" y="289" width="152" height="72" rx="0" fill="#147765" opacity="0.4589422135161607"/>
<text x="678.0" y="334" font-size="14" font-weight="800" fill="#18212f" text-anchor="middle" font-family="Inter, Arial, sans-serif">0.9988</text>
<rect x="754" y="289" width="152" height="72" rx="0" fill="#147765" opacity="0.45764320785597334"/>
<text x="830.0" y="334" font-size="14" font-weight="800" fill="#18212f" text-anchor="middle" font-family="Inter, Arial, sans-serif">0.9992</text>
<rect x="906" y="289" width="152" height="72" rx="0" fill="#147765" opacity="0.45906522756569534"/>
<text x="982.0" y="334" font-size="14" font-weight="800" fill="#18212f" text-anchor="middle" font-family="Inter, Arial, sans-serif">0.9982</text>
<line x1="78" y1="361" x2="1058" y2="361" stroke="#dce4ec" stroke-width="1"/>
<text x="98" y="406" font-size="14" font-weight="800" fill="#18212f" text-anchor="start" font-family="Inter, Arial, sans-serif">Label-aware</text>
<rect x="298" y="361" width="152" height="72" rx="0" fill="#147765" opacity="0.45300059675851356"/>
<text x="374.0" y="406" font-size="14" font-weight="800" fill="#18212f" text-anchor="middle" font-family="Inter, Arial, sans-serif">0.9117</text>
<rect x="450" y="361" width="152" height="72" rx="0" fill="#147765" opacity="0.45999999999999996"/>
<text x="526.0" y="406" font-size="14" font-weight="800" fill="#18212f" text-anchor="middle" font-family="Inter, Arial, sans-serif">0.9982</text>
<rect x="602" y="361" width="152" height="72" rx="0" fill="#147765" opacity="0.4592948090107738"/>
<text x="678.0" y="406" font-size="14" font-weight="800" fill="#18212f" text-anchor="middle" font-family="Inter, Arial, sans-serif">0.9989</text>
<rect x="754" y="361" width="152" height="72" rx="0" fill="#147765" opacity="0.45764320785597334"/>
<text x="830.0" y="406" font-size="14" font-weight="800" fill="#18212f" text-anchor="middle" font-family="Inter, Arial, sans-serif">0.9992</text>
<rect x="906" y="361" width="152" height="72" rx="0" fill="#147765" opacity="0.4599742481686365"/>
<text x="982.0" y="406" font-size="14" font-weight="800" fill="#18212f" text-anchor="middle" font-family="Inter, Arial, sans-serif">0.9986</text>
<line x1="78" y1="433" x2="1058" y2="433" stroke="#dce4ec" stroke-width="1"/>
<text x="98" y="478" font-size="14" font-weight="800" fill="#18212f" text-anchor="start" font-family="Inter, Arial, sans-serif">SupCon CE</text>
<rect x="298" y="433" width="152" height="72" rx="0" fill="#147765" opacity="0.45999999999999996"/>
<text x="374.0" y="478" font-size="14" font-weight="800" fill="#18212f" text-anchor="middle" font-family="Inter, Arial, sans-serif">0.9254</text>
<rect x="450" y="433" width="152" height="72" rx="0" fill="#147765" opacity="0.4598425196850394"/>
<text x="526.0" y="478" font-size="14" font-weight="800" fill="#18212f" text-anchor="middle" font-family="Inter, Arial, sans-serif">0.9981</text>
<rect x="602" y="433" width="152" height="72" rx="0" fill="#147765" opacity="0.45999999999999996"/>
<text x="678.0" y="478" font-size="14" font-weight="800" fill="#18212f" text-anchor="middle" font-family="Inter, Arial, sans-serif">0.9991</text>
<rect x="754" y="433" width="152" height="72" rx="0" fill="#147765" opacity="0.45999999999999996"/>
<text x="830.0" y="478" font-size="14" font-weight="800" fill="#18212f" text-anchor="middle" font-family="Inter, Arial, sans-serif">0.9996</text>
<rect x="906" y="433" width="152" height="72" rx="0" fill="#147765" opacity="0.45999999999999996"/>
<text x="982.0" y="478" font-size="14" font-weight="800" fill="#18212f" text-anchor="middle" font-family="Inter, Arial, sans-serif">0.9986</text>
<line x1="298" y1="145" x2="298" y2="505" stroke="#dce4ec" stroke-width="1"/>
<line x1="450" y1="145" x2="450" y2="505" stroke="#dce4ec" stroke-width="1"/>
<line x1="602" y1="145" x2="602" y2="505" stroke="#dce4ec" stroke-width="1"/>
<line x1="754" y1="145" x2="754" y2="505" stroke="#dce4ec" stroke-width="1"/>
<line x1="906" y1="145" x2="906" y2="505" stroke="#dce4ec" stroke-width="1"/>
<line x1="1058" y1="145" x2="1058" y2="505" stroke="#dce4ec" stroke-width="1"/>
</svg>
