<svg xmlns="http://www.w3.org/2000/svg" width="1080" height="600" viewBox="0 0 1080 600">
<rect width="1080" height="600" fill="#ffffff"/>
<text x="52" y="52" font-size="28" font-weight="800" fill="#18212f" text-anchor="start" font-family="Inter, Arial, sans-serif">MAP@R change relative to UniXcoder</text><text x="52" y="82" font-size="14" font-weight="500" fill="#657184" text-anchor="start" font-family="Inter, Arial, sans-serif">Baseline UniXcoder MAP@R = 0.9098; positive values indicate ranking improvements.</text>
<text x="74" y="200" font-size="15" font-weight="800" fill="#18212f" text-anchor="start" font-family="Inter, Arial, sans-serif">TF-IDF</text>
<rect x="260" y="182" width="650" height="20" rx="10" fill="#f0f3f5" stroke="#dce4ec"/>
<line x1="585.0" y1="178" x2="585.0" y2="208" stroke="#aebbc7" stroke-width="1.5"/>
<rect x="260.0" y="186" width="325.0" height="12" rx="6" fill="#b64e43"/>
<text x="940" y="201" font-size="16" font-weight="800" fill="#b64e43" text-anchor="end" font-family="Inter, Arial, sans-serif">-0.6929</text>
<text x="74" y="282" font-size="15" font-weight="800" fill="#18212f" text-anchor="start" font-family="Inter, Arial, sans-serif">Label-aware</text>
<rect x="260" y="264" width="650" height="20" rx="10" fill="#f0f3f5" stroke="#dce4ec"/>
<line x1="585.0" y1="260" x2="585.0" y2="290" stroke="#aebbc7" stroke-width="1.5"/>
<rect x="585.0" y="268" width="0.86" height="12" rx="6" fill="#147765"/>
<text x="940" y="283" font-size="16" font-weight="800" fill="#147765" text-anchor="end" font-family="Inter, Arial, sans-serif">+0.0018</text>
<text x="74" y="364" font-size="15" font-weight="800" fill="#18212f" text-anchor="start" font-family="Inter, Arial, sans-serif">SupCon CE</text>
<rect x="260" y="346" width="650" height="20" rx="10" fill="#f0f3f5" stroke="#dce4ec"/>
<line x1="585.0" y1="342" x2="585.0" y2="372" stroke="#aebbc7" stroke-width="1.5"/>
<rect x="585.0" y="350" width="7.32" height="12" rx="6" fill="#6554b5"/>
<text x="940" y="365" font-size="16" font-weight="800" fill="#6554b5" text-anchor="end" font-family="Inter, Arial, sans-serif">+0.0156</text>
<text x="585.0" y="480" font-size="12" font-weight="700" fill="#657184" text-anchor="middle" font-family="Inter, Arial, sans-serif">0</text>
<text x="260" y="480" font-size="12" font-weight="700" fill="#657184" text-anchor="middle" font-family="Inter, Arial, sans-serif">-0.693</text>
<text x="910" y="480" font-size="12" font-weight="700" fill="#657184" text-anchor="middle" font-family="Inter, Arial, sans-serif">+0.693</text>
</svg>
