<svg xmlns="http://www.w3.org/2000/svg" width="1280" height="690" viewBox="0 0 1280 690">
<rect width="1280" height="690" fill="#ffffff"/>
<text x="52" y="52" font-size="28" font-weight="800" fill="#18212f" text-anchor="start" font-family="Inter, Arial, sans-serif">Semantic code reuse retrieval framework</text><text x="52" y="82" font-size="14" font-weight="500" fill="#657184" text-anchor="start" font-family="Inter, Arial, sans-serif">The final model optimizes same-problem retrieval rather than fixed pair classification.</text>
<rect x="70" y="170" width="210" height="112" rx="14" fill="#f9fbfc" stroke="#dce4ec"/>
<text x="90" y="204" font-size="17" font-weight="800" fill="#18212f" text-anchor="start" font-family="Inter, Arial, sans-serif">POJ-104 code</text>
<text x="90" y="233" font-size="13" font-weight="600" fill="#657184" text-anchor="start" font-family="Inter, Arial, sans-serif">query + candidate pool</text>
<rect x="340" y="170" width="220" height="112" rx="14" fill="#edf4ff" stroke="#285fae"/>
<text x="360" y="204" font-size="17" font-weight="800" fill="#18212f" text-anchor="start" font-family="Inter, Arial, sans-serif">UniXcoder encoder</text>
<text x="360" y="233" font-size="13" font-weight="600" fill="#657184" text-anchor="start" font-family="Inter, Arial, sans-serif">shared dual-tower weights</text>
<rect x="620" y="170" width="230" height="112" rx="14" fill="#edf5f2" stroke="#147765"/>
<text x="640" y="204" font-size="17" font-weight="800" fill="#18212f" text-anchor="start" font-family="Inter, Arial, sans-serif">Embedding space</text>
<text x="640" y="233" font-size="13" font-weight="600" fill="#657184" text-anchor="start" font-family="Inter, Arial, sans-serif">cosine similarity ranking</text>
<rect x="910" y="170" width="250" height="112" rx="14" fill="#f7f0fb" stroke="#6554b5"/>
<text x="930" y="204" font-size="17" font-weight="800" fill="#18212f" text-anchor="start" font-family="Inter, Arial, sans-serif">Top-K retrieval</text>
<text x="930" y="233" font-size="13" font-weight="600" fill="#657184" text-anchor="start" font-family="Inter, Arial, sans-serif">same problem should rank high</text>
<line x1="292" y1="226" x2="328" y2="226" stroke="#657184" stroke-width="2"/><path d="M 328 226 L 319.22417438109625 230.79425538604204 L 319.22417438109625 221.20574461395796 Z" fill="#657184" stroke="#657184" stroke-width="1" stroke-linecap="round" stroke-linejoin="round"/>
<line x1="572" y1="226" x2="608" y2="226" stroke="#657184" stroke-width="2"/><path d="M 608 226 L 599.2241743810963 230.79425538604204 L 599.2241743810963 221.20574461395796 Z" fill="#657184" stroke="#657184" stroke-width="1" stroke-linecap="round" stroke-linejoin="round"/>
<line x1="862" y1="226" x2="898" y2="226" stroke="#657184" stroke-width="2"/><path d="M 898 226 L 889.2241743810963 230.79425538604204 L 889.2241743810963 221.20574461395796 Z" fill="#657184" stroke="#657184" stroke-width="1" stroke-linecap="round" stroke-linejoin="round"/>
<rect x="318" y="395" width="290" height="112" rx="14" fill="#fff8ec" stroke="#a66f12"/>
<text x="338" y="429" font-size="17" font-weight="800" fill="#18212f" text-anchor="start" font-family="Inter, Arial, sans-serif">Label-aware loss</text>
<text x="338" y="458" font-size="13" font-weight="600" fill="#657184" text-anchor="start" font-family="Inter, Arial, sans-serif">mask same-problem false negatives</text>
<rect x="672" y="395" width="318" height="112" rx="14" fill="#eef6f4" stroke="#147765"/>
<text x="692" y="429" font-size="17" font-weight="800" fill="#18212f" text-anchor="start" font-family="Inter, Arial, sans-serif">SupCon + CE objective</text>
<text x="692" y="458" font-size="13" font-weight="600" fill="#657184" text-anchor="start" font-family="Inter, Arial, sans-serif">pull positives close; separate classes</text>
<line x1="462" y1="395" x2="462" y2="292" stroke="#a66f12" stroke-width="2"/><path d="M 462 292 L 466.79425538604204 300.77582561890375 L 457.20574461395796 300.77582561890375 Z" fill="#a66f12" stroke="#a66f12" stroke-width="1" stroke-linecap="round" stroke-linejoin="round"/>
<line x1="831" y1="395" x2="744" y2="292" stroke="#147765" stroke-width="2"/><path d="M 744 292 L 753.3254036484683 295.61065739071637 L 746.0002736640486 301.7979031057116 Z" fill="#147765" stroke="#147765" stroke-width="1" stroke-linecap="round" stroke-linejoin="round"/>
<text x="640" y="602" font-size="20" font-weight="800" fill="#18212f" text-anchor="middle" font-family="Inter, Arial, sans-serif">Outcome: MAP@R improves from 0.9098 to 0.9254</text>
</svg>
